<svg xmlns="http://www.w3.org/2000/svg" width="14" height="14" viewBox="0 0 14 14" fill="none">
<g clip-path="url(#clip0_767_415)">
<path d="M11.0833 2.33268H10.5V1.16602H9.33333V2.33268H4.66667V1.16602H3.5V2.33268H2.91667C2.26917 2.33268 1.75583 2.85768 1.75583 3.49935L1.75 11.666C1.75 12.3077 2.26917 12.8327 2.91667 12.8327H11.0833C11.725 12.8327 12.25 12.3077 12.25 11.666V3.49935C12.25 2.85768 11.725 2.33268 11.0833 2.33268ZM11.0833 11.666H2.91667V5.83268H11.0833V11.666ZM5.25 8.16602H4.08333V6.99935H5.25V8.16602ZM7.58333 8.16602H6.41667V6.99935H7.58333V8.16602ZM9.91667 8.16602H8.75V6.99935H9.91667V8.16602ZM5.25 10.4993H4.08333V9.33268H5.25V10.4993ZM7.58333 10.4993H6.41667V9.33268H7.58333V10.4993ZM9.91667 10.4993H8.75V9.33268H9.91667V10.4993Z" fill="black"/>
</g>
<defs>
<clipPath id="clip0_767_415">
<rect width="14" height="14" fill="white"/>
</clipPath>
</defs>
</svg>