<svg xmlns="http://www.w3.org/2000/svg" width="24" height="24" viewBox="0 0 24 24" fill="none">
<path d="M11.9995 1.2698C9.37424 1.25151 6.82898 2.17277 4.82359 3.86714C2.81821 5.56151 1.48496 7.91725 1.06472 10.5087C0.644474 13.1002 1.16496 15.7566 2.53213 17.9979C3.8993 20.2391 6.02299 21.9175 8.51952 22.7298C9.06952 22.8198 9.24952 22.4498 9.24952 22.1798V20.3398C6.21952 20.9798 5.57952 18.8798 5.57952 18.8798C5.02952 17.5898 4.29952 17.2298 4.29952 17.2298C3.37952 16.5798 4.39952 16.5798 4.39952 16.5798C5.49952 16.5798 6.12952 17.6798 6.12952 17.6798C7.04952 19.3298 8.69952 18.8798 9.33952 18.5998C9.33903 18.3239 9.39563 18.0508 9.50578 17.7979C9.61592 17.5449 9.77722 17.3174 9.97952 17.1298C7.50952 16.8598 4.93952 15.9398 4.93952 11.6298C4.93952 10.5298 5.39952 9.5298 6.13952 8.7898C5.94342 8.32627 5.84238 7.8281 5.84238 7.3248C5.84238 6.8215 5.94342 6.32332 6.13952 5.8598C6.13952 5.8598 7.04952 5.5798 9.24952 6.9598C11.0495 6.4698 12.9495 6.4698 14.7495 6.9598C16.8495 5.5798 17.7695 5.8598 17.7695 5.8598C17.9656 6.32332 18.0667 6.8215 18.0667 7.3248C18.0667 7.8281 17.9656 8.32627 17.7695 8.7898C18.5995 9.5298 18.9695 10.5298 18.9695 11.7298C18.9695 15.9398 16.3995 16.8598 13.9295 17.1298C14.3795 17.4998 14.7495 18.0498 14.7495 19.1498V22.1798C14.7495 22.4498 14.8495 22.8198 15.4795 22.7298C17.9761 21.9175 20.0998 20.2391 21.4669 17.9979C22.8341 15.7566 23.3546 13.1002 22.9343 10.5087C22.5141 7.91725 21.1808 5.56151 19.1755 3.86714C17.1701 2.17277 14.6248 1.25151 11.9995 1.2698Z" fill="black"/>
</svg>