<svg xmlns="http://www.w3.org/2000/svg" width="115" height="55" viewBox="0 0 115 55" fill="none">
<path d="M0 3.63969C0 1.62955 1.62955 0 3.63969 0H54.9191C56.9292 0 58.5588 1.62955 58.5588 3.63969V51.3603C58.5588 53.3705 56.9292 55 54.9191 55H3.63969C1.62954 55 0 53.3705 0 51.3603V3.63969Z" fill="black"/>
<path d="M17.0242 37H9.20459V14.9332H17.0835C19.305 14.9332 21.2155 15.3775 22.8149 16.2661C24.4144 17.1448 25.6436 18.4086 26.5026 20.0574C27.3715 21.6964 27.8059 23.6612 27.8059 25.9518C27.8059 28.2523 27.3715 30.2269 26.5026 31.8758C25.6436 33.5246 24.4095 34.7933 22.8001 35.6819C21.1908 36.5606 19.2655 37 17.0242 37ZM13.8549 33.0013H16.8169C18.9002 33.0013 20.4799 32.4435 21.5561 31.3278C22.6323 30.2121 23.1704 28.4201 23.1704 25.9518C23.1704 23.5032 22.6323 21.7211 21.5561 20.6054C20.4799 19.4897 18.9002 18.9319 16.8169 18.9319H13.8549V33.0013ZM39.7664 37.2962C37.7029 37.2962 35.8862 36.842 34.3163 35.9337C32.7564 35.0155 31.537 33.7122 30.6583 32.0239C29.7894 30.3256 29.355 28.3164 29.355 25.9962C29.355 23.6069 29.8092 21.568 30.7175 19.8797C31.6259 18.1815 32.86 16.8831 34.42 15.9847C35.98 15.0862 37.7325 14.637 39.6775 14.637C41.3461 14.637 42.8518 14.9529 44.1946 15.5848C45.5472 16.2167 46.653 17.0905 47.512 18.2062C48.3809 19.3219 48.914 20.6103 49.1115 22.0716H44.3871C44.081 21.0349 43.5331 20.2253 42.7432 19.6427C41.9533 19.0503 40.9561 18.7541 39.7516 18.7541C38.0633 18.7541 36.6958 19.3811 35.6492 20.635C34.6027 21.879 34.0794 23.6513 34.0794 25.9518C34.0794 28.2523 34.5928 30.0344 35.6196 31.2982C36.6563 32.5521 38.0534 33.179 39.8108 33.179C41.3511 33.179 42.5606 32.7792 43.4393 31.9794C44.3279 31.1698 44.787 30.0788 44.8166 28.7064H40.0922V25.1965H49.3336V27.9807C49.3336 29.9159 48.9239 31.5796 48.1044 32.9717C47.2849 34.3638 46.1544 35.4351 44.7129 36.1855C43.2714 36.926 41.6226 37.2962 39.7664 37.2962Z" fill="#F81212"/>
<path d="M69.1291 16.432H72.2641C73.7701 16.432 74.915 16.7624 75.6987 17.4232C76.4825 18.084 76.8743 19.0522 76.8743 20.3277C76.8743 21.657 76.4786 22.6866 75.6872 23.4166C74.9035 24.1389 73.7855 24.5 72.3332 24.5H69.1291V16.432ZM72.4946 23.9468C73.5165 23.9468 74.3003 23.6356 74.8458 23.0132C75.3991 22.3908 75.6757 21.4956 75.6757 20.3277C75.6757 19.2289 75.4067 18.3991 74.8689 17.8381C74.331 17.2695 73.5396 16.9852 72.4946 16.9852H70.3277V23.9468H72.4946ZM80.4558 24.6153C79.7104 24.6153 79.1418 24.4654 78.75 24.1658C78.3658 23.8661 78.1737 23.4396 78.1737 22.8864C78.1737 22.2947 78.408 21.8452 78.8768 21.5379C79.3455 21.2229 80.0293 21.0653 80.9283 21.0653H82.6111V20.6504C82.6111 20.1817 82.4689 19.8244 82.1846 19.5785C81.9003 19.3326 81.4892 19.2097 80.9514 19.2097C80.4442 19.2097 80.037 19.3288 79.7297 19.567C79.4223 19.7975 79.2417 20.1279 79.1879 20.5582H78.3581C78.4349 19.9742 78.7039 19.5247 79.1649 19.2097C79.6259 18.8947 80.2406 18.7372 81.009 18.7372C81.8696 18.7372 82.5266 18.9139 82.9799 19.2673C83.4332 19.6131 83.6599 20.1164 83.6599 20.7772V22.6444C83.6599 23.3052 83.7175 23.9237 83.8328 24.5H82.8416C82.7571 24.1542 82.7033 23.8238 82.6802 23.5088C82.2192 24.2464 81.4777 24.6153 80.4558 24.6153ZM80.7209 24.1658C81.0743 24.1658 81.3932 24.0851 81.6775 23.9237C81.9695 23.7547 82.1962 23.5318 82.3575 23.2552C82.5266 22.9786 82.6111 22.6713 82.6111 22.3332V21.5379H81.2165C80.5403 21.5379 80.037 21.6493 79.7066 21.8721C79.3839 22.0873 79.2225 22.4215 79.2225 22.8749C79.2225 23.2975 79.3493 23.6202 79.6029 23.843C79.8564 24.0582 80.2291 24.1658 80.7209 24.1658ZM85.3695 18.8524H86.4299V19.8436C86.6143 19.5055 86.8986 19.2366 87.2828 19.0368C87.6746 18.837 88.1126 18.7372 88.5967 18.7372C89.342 18.7372 89.9298 18.9331 90.3601 19.325C90.7904 19.7092 91.0056 20.2317 91.0056 20.8925V24.5H89.9452V20.7772C89.9452 20.2778 89.8069 19.8936 89.5303 19.6246C89.2537 19.348 88.8618 19.2097 88.3547 19.2097C87.7707 19.2097 87.302 19.4018 86.9485 19.786C86.6028 20.1625 86.4299 20.6619 86.4299 21.2843V24.5H85.3695V18.8524ZM93.2893 18.1493C93.0588 18.1493 92.8705 18.084 92.7245 17.9534C92.5785 17.8228 92.5055 17.6499 92.5055 17.4347C92.5055 17.2196 92.5785 17.0467 92.7245 16.9161C92.8705 16.7855 93.0588 16.7202 93.2893 16.7202C93.5198 16.7202 93.708 16.7855 93.854 16.9161C94 17.0467 94.073 17.2196 94.073 17.4347C94.073 17.6499 94 17.8228 93.854 17.9534C93.708 18.084 93.5198 18.1493 93.2893 18.1493ZM92.7591 18.8524H93.8195V24.5H92.7591V18.8524ZM98.6299 24.1427C99.1524 24.1427 99.5904 24.0159 99.9438 23.7624C100.305 23.5088 100.535 23.163 100.635 22.725H101.5C101.354 23.3167 101.02 23.7816 100.497 24.1197C99.9746 24.4501 99.3368 24.6153 98.5838 24.6153C97.9537 24.6153 97.4005 24.4962 96.9241 24.258C96.4554 24.0198 96.0904 23.6817 95.8292 23.2437C95.5756 22.798 95.4488 22.2832 95.4488 21.6993C95.4488 21.0999 95.5756 20.5774 95.8292 20.1318C96.0827 19.6861 96.4439 19.3442 96.9126 19.106C97.389 18.8601 97.9384 18.7372 98.5608 18.7372C99.4982 18.7372 100.228 18.9907 100.751 19.4978C101.281 20.005 101.557 20.7196 101.58 21.6416H96.5092V21.6993C96.5092 22.46 96.6936 23.0593 97.0624 23.4973C97.4312 23.9276 97.9537 24.1427 98.6299 24.1427ZM98.5838 19.2097C98.0075 19.2097 97.5427 19.3826 97.1892 19.7284C96.8357 20.0664 96.6206 20.5467 96.5438 21.1691H100.578C100.493 20.539 100.278 20.0549 99.9323 19.7168C99.5942 19.3787 99.1447 19.2097 98.5838 19.2097ZM103.239 16.6279H104.299V24.5H103.239V16.6279ZM73.3705 39.6153C72.4331 39.6153 71.6302 39.4539 70.9617 39.1312C70.2932 38.8008 69.7822 38.3244 69.4287 37.702C69.0753 37.0796 68.8986 36.3381 68.8986 35.4775C68.8986 34.6169 69.0714 33.8755 69.4172 33.2531C69.763 32.6307 70.2624 32.1543 70.9156 31.8239C71.5687 31.4858 72.3447 31.3168 73.2437 31.3168C74.3348 31.3168 75.23 31.555 75.9292 32.0313C76.6361 32.5001 77.0626 33.1493 77.2086 33.9792H76.1713C76.033 33.303 75.7141 32.7844 75.2146 32.4232C74.7152 32.0544 74.0698 31.87 73.2783 31.87C72.2871 31.87 71.5111 32.1889 70.9501 32.8266C70.3892 33.4567 70.1088 34.3365 70.1088 35.466C70.1088 36.6109 70.3931 37.4984 70.9617 38.1284C71.5379 38.7508 72.3447 39.062 73.3821 39.062C73.8661 39.062 74.308 39.0121 74.7075 38.9122C75.1071 38.8046 75.4874 38.6394 75.8486 38.4166V35.8003H73.0248V35.2816H77.0472V38.4973C76.5939 38.8584 76.0522 39.135 75.4221 39.3271C74.7997 39.5192 74.1159 39.6153 73.3705 39.6153ZM80.9205 39.6153C80.1675 39.6153 79.5758 39.4232 79.1455 39.039C78.7229 38.6471 78.5116 38.1092 78.5116 37.4254V33.8524H79.572V37.5406C79.572 38.0554 79.7065 38.4512 79.9754 38.7278C80.252 39.0044 80.6439 39.1427 81.151 39.1427C81.735 39.1427 82.2037 38.9545 82.5571 38.5779C82.9183 38.1938 83.0989 37.6905 83.0989 37.0681V33.8524H84.1592V39.5H83.0989V38.5088C82.9144 38.8546 82.6301 39.1273 82.2459 39.3271C81.8618 39.5192 81.4199 39.6153 80.9205 39.6153ZM88.7025 39.1427C89.225 39.1427 89.663 39.0159 90.0164 38.7624C90.3776 38.5088 90.6081 38.163 90.708 37.725H91.5724C91.4264 38.3167 91.0922 38.7816 90.5697 39.1197C90.0472 39.4501 89.4094 39.6153 88.6564 39.6153C88.0263 39.6153 87.4731 39.4962 86.9967 39.258C86.528 39.0198 86.163 38.6817 85.9018 38.2437C85.6482 37.798 85.5214 37.2832 85.5214 36.6993C85.5214 36.0999 85.6482 35.5774 85.9018 35.1318C86.1553 34.6861 86.5165 34.3442 86.9852 34.106C87.4616 33.8601 88.011 33.7372 88.6333 33.7372C89.5708 33.7372 90.3007 33.9907 90.8232 34.4978C91.3534 35.005 91.63 35.7196 91.6531 36.6416H86.5818V36.6993C86.5818 37.46 86.7662 38.0593 87.135 38.4973C87.5038 38.9276 88.0263 39.1427 88.7025 39.1427ZM88.6564 34.2097C88.0801 34.2097 87.6152 34.3826 87.2618 34.7284C86.9083 35.0664 86.6932 35.5467 86.6164 36.1691H90.6503C90.5658 35.539 90.3507 35.0549 90.0049 34.7168C89.6668 34.3787 89.2173 34.2097 88.6564 34.2097ZM95.7321 39.6153C95.1558 39.6153 94.641 39.4923 94.1877 39.2464C93.742 38.9929 93.3924 38.6433 93.1388 38.1976C92.8929 37.7519 92.77 37.2448 92.77 36.6762C92.77 36.0922 92.8891 35.5813 93.1273 35.1433C93.3655 34.6976 93.6997 34.3519 94.13 34.106C94.568 33.8601 95.0713 33.7372 95.6399 33.7372C96.1547 33.7372 96.6119 33.8409 97.0114 34.0483C97.411 34.2481 97.7222 34.5324 97.945 34.9012V31.6279H99.0054V39.5H97.945V38.4742C97.7299 38.843 97.4302 39.1273 97.046 39.3271C96.6695 39.5192 96.2315 39.6153 95.7321 39.6153ZM95.8819 39.1542C96.2892 39.1542 96.6465 39.0543 96.9538 38.8546C97.2689 38.6471 97.5109 38.359 97.6799 37.9901C97.8567 37.6136 97.945 37.1833 97.945 36.6993C97.945 36.1998 97.8567 35.7618 97.6799 35.3853C97.5109 35.0011 97.265 34.7092 96.9423 34.5094C96.6273 34.3019 96.2623 34.1982 95.8474 34.1982C95.2326 34.1982 94.7409 34.421 94.3721 34.8667C94.0109 35.3046 93.8304 35.9001 93.8304 36.6532C93.8304 37.1526 93.9149 37.5906 94.0839 37.9671C94.253 38.3436 94.4912 38.6356 94.7985 38.843C95.1135 39.0505 95.4747 39.1542 95.8819 39.1542ZM103.549 39.1427C104.071 39.1427 104.509 39.0159 104.863 38.7624C105.224 38.5088 105.454 38.163 105.554 37.725H106.418C106.272 38.3167 105.938 38.7816 105.416 39.1197C104.893 39.4501 104.255 39.6153 103.502 39.6153C102.872 39.6153 102.319 39.4962 101.843 39.258C101.374 39.0198 101.009 38.6817 100.748 38.2437C100.494 37.798 100.367 37.2832 100.367 36.6993C100.367 36.0999 100.494 35.5774 100.748 35.1318C101.001 34.6861 101.363 34.3442 101.831 34.106C102.308 33.8601 102.857 33.7372 103.479 33.7372C104.417 33.7372 105.147 33.9907 105.669 34.4978C106.199 35.005 106.476 35.7196 106.499 36.6416H101.428V36.6993C101.428 37.46 101.612 38.0593 101.981 38.4973C102.35 38.9276 102.872 39.1427 103.549 39.1427ZM103.502 34.2097C102.926 34.2097 102.461 34.3826 102.108 34.7284C101.754 35.0664 101.539 35.5467 101.462 36.1691H105.496C105.412 35.539 105.197 35.0549 104.851 34.7168C104.513 34.3787 104.063 34.2097 103.502 34.2097ZM110.653 39.6153C109.862 39.6153 109.22 39.4616 108.729 39.1542C108.245 38.8469 107.953 38.4166 107.853 37.8634H108.729C108.79 38.2629 108.99 38.5779 109.328 38.8085C109.674 39.0313 110.127 39.1427 110.688 39.1427C111.218 39.1427 111.641 39.0351 111.956 38.82C112.279 38.6048 112.44 38.3205 112.44 37.9671C112.44 37.6828 112.302 37.46 112.025 37.2986C111.748 37.1295 111.287 36.9912 110.642 36.8837C109.996 36.7761 109.482 36.657 109.097 36.5264C108.721 36.3881 108.448 36.2229 108.279 36.0308C108.11 35.831 108.026 35.5851 108.026 35.2931C108.026 34.8167 108.252 34.4402 108.706 34.1636C109.167 33.8793 109.808 33.7372 110.63 33.7372C111.43 33.7372 112.075 33.8908 112.567 34.1982C113.066 34.4978 113.354 34.9205 113.431 35.466H112.555C112.486 35.0741 112.286 34.7668 111.956 34.544C111.625 34.3211 111.207 34.2097 110.7 34.2097C110.215 34.2097 109.824 34.2981 109.524 34.4748C109.232 34.6438 109.086 34.8744 109.086 35.1663C109.086 35.3431 109.136 35.4852 109.236 35.5928C109.336 35.7004 109.516 35.7964 109.778 35.8809C110.046 35.9655 110.442 36.0538 110.965 36.146C111.856 36.2997 112.501 36.5148 112.901 36.7915C113.301 37.0604 113.5 37.4292 113.5 37.8979C113.5 38.4358 113.247 38.8584 112.74 39.1658C112.24 39.4654 111.545 39.6153 110.653 39.6153Z" fill="black"/>
</svg>