<svg xmlns="http://www.w3.org/2000/svg" width="59" height="55" viewBox="0 0 59 55" fill="none">
<path d="M0 3.63969C0 1.62955 1.62955 0 3.63969 0H54.9191C56.9292 0 58.5588 1.62955 58.5588 3.63969V51.3603C58.5588 53.3705 56.9292 55 54.9191 55H3.63969C1.62954 55 0 53.3705 0 51.3603V3.63969Z" fill="black"/>
<path d="M17.0242 37H9.20459V14.9332H17.0835C19.305 14.9332 21.2155 15.3775 22.8149 16.2661C24.4144 17.1448 25.6436 18.4086 26.5026 20.0574C27.3715 21.6964 27.8059 23.6612 27.8059 25.9518C27.8059 28.2523 27.3715 30.2269 26.5026 31.8758C25.6436 33.5246 24.4095 34.7933 22.8001 35.6819C21.1908 36.5606 19.2655 37 17.0242 37ZM13.8549 33.0013H16.8169C18.9002 33.0013 20.4799 32.4435 21.5561 31.3278C22.6323 30.2121 23.1704 28.4201 23.1704 25.9518C23.1704 23.5032 22.6323 21.7211 21.5561 20.6054C20.4799 19.4897 18.9002 18.9319 16.8169 18.9319H13.8549V33.0013ZM39.7664 37.2962C37.7029 37.2962 35.8862 36.842 34.3163 35.9337C32.7564 35.0155 31.537 33.7122 30.6583 32.0239C29.7894 30.3256 29.355 28.3164 29.355 25.9962C29.355 23.6069 29.8092 21.568 30.7175 19.8797C31.6259 18.1815 32.86 16.8831 34.42 15.9847C35.98 15.0862 37.7325 14.637 39.6775 14.637C41.3461 14.637 42.8518 14.9529 44.1946 15.5848C45.5472 16.2167 46.653 17.0905 47.512 18.2062C48.3809 19.3219 48.914 20.6103 49.1115 22.0716H44.3871C44.081 21.0349 43.5331 20.2253 42.7432 19.6427C41.9533 19.0503 40.9561 18.7541 39.7516 18.7541C38.0633 18.7541 36.6958 19.3811 35.6492 20.635C34.6027 21.879 34.0794 23.6513 34.0794 25.9518C34.0794 28.2523 34.5928 30.0344 35.6196 31.2982C36.6563 32.5521 38.0534 33.179 39.8108 33.179C41.3511 33.179 42.5606 32.7792 43.4393 31.9794C44.3279 31.1698 44.787 30.0788 44.8166 28.7064H40.0922V25.1965H49.3336V27.9807C49.3336 29.9159 48.9239 31.5796 48.1044 32.9717C47.2849 34.3638 46.1544 35.4351 44.7129 36.1855C43.2714 36.926 41.6226 37.2962 39.7664 37.2962Z" fill="#F81212"/>
</svg>