<svg xmlns="http://www.w3.org/2000/svg" width="112" height="115" viewBox="0 0 112 115" fill="none">
<path d="M2 2L80.5 90.5" stroke="white" stroke-width="4" stroke-linecap="round"/>
<path d="M82.5408 80.6751L87.315 97.3246L70.509 93.1344L82.5408 80.6751Z" fill="white"/>
<path d="M62.6797 30.6933C64.306 33.7411 67.5013 38.9755 75.7912 50.0974C89.5643 65.1715 100.002 71.8273 104.665 73.331C106.005 73.7147 107.492 74.1204 110.429 75.2441" stroke="white" stroke-width="2" stroke-linecap="round"/>
<path d="M23.5781 65.7577C23.803 67.1621 27.7613 72.7929 32.1087 77.2707C40.8919 86.3173 49.8874 98.1433 53.7845 105.637C54.6637 107.572 55.2978 109.134 55.6244 110.406C55.9511 111.678 55.9511 112.612 55.9511 113.574" stroke="white" stroke-width="2" stroke-linecap="round"/>
</svg>