<svg xmlns="http://www.w3.org/2000/svg" width="216" height="152" viewBox="0 0 216 152" fill="none">
<path d="M14.256 12.88C17.328 12.88 19.76 13.584 21.552 14.992C23.344 16.368 24.24 18.224 24.24 20.56C24.24 24.304 22.704 26.912 19.632 28.384C23.792 29.824 25.872 32.48 25.872 36.352C25.872 39.264 24.624 41.696 22.128 43.648C19.632 45.568 16.496 46.528 12.72 46.528C10.736 46.528 7.776 46.352 3.84 46L4.416 34.336L3.84 12.88H14.256ZM13.632 31.744H9.744L9.696 33.52L10.032 41.344C11.888 41.504 13.312 41.584 14.304 41.584C16 41.584 17.312 41.168 18.24 40.336C19.2 39.472 19.68 38.224 19.68 36.592C19.68 34.96 19.2 33.744 18.24 32.944C17.28 32.144 15.744 31.744 13.632 31.744ZM12.528 17.728H10.176L9.888 27.088H13.008C14.64 27.088 15.888 26.656 16.752 25.792C17.616 24.896 18.048 23.632 18.048 22C18.048 19.152 16.208 17.728 12.528 17.728ZM51.0758 46.24L48.7238 36.88H37.2518L34.7078 46L28.5638 45.52L32.7878 33.856L39.2198 13.216L47.8118 12.592L54.0038 33.136L57.9878 45.184L51.0758 46.24ZM43.4918 18.832H42.8678L38.7398 31.792H47.2838L43.4918 18.832ZM63.0555 36.448C65.7755 39.168 68.4955 40.528 71.2155 40.528C72.6235 40.528 73.7435 40.208 74.5755 39.568C75.4395 38.896 75.8715 38.048 75.8715 37.024C75.8715 35.968 75.3595 35.088 74.3355 34.384C73.3115 33.648 72.0635 33.008 70.5915 32.464C69.1515 31.92 67.7115 31.312 66.2715 30.64C64.8315 29.936 63.5995 28.944 62.5755 27.664C61.5515 26.384 61.0395 24.832 61.0395 23.008C61.0395 20.128 62.2395 17.648 64.6395 15.568C67.0395 13.456 69.8875 12.4 73.1835 12.4C74.6875 12.4 76.1435 12.56 77.5515 12.88C78.9595 13.2 80.3195 13.664 81.6315 14.272L78.3675 21.28C77.4715 20.576 76.2395 19.936 74.6715 19.36C73.1355 18.752 71.7755 18.448 70.5915 18.448C69.4395 18.448 68.4955 18.736 67.7595 19.312C67.0555 19.856 66.7035 20.592 66.7035 21.52C66.7035 22.448 67.2155 23.28 68.2395 24.016C69.2635 24.72 70.4955 25.344 71.9355 25.888C73.4075 26.432 74.8635 27.04 76.3035 27.712C77.7755 28.352 79.0235 29.312 80.0475 30.592C81.0715 31.872 81.5835 33.424 81.5835 35.248C81.5835 38.256 80.3835 40.896 77.9835 43.168C75.5835 45.408 72.7835 46.528 69.5835 46.528C67.1835 46.528 65.0555 45.952 63.1995 44.8C61.5675 43.808 60.4155 42.928 59.7435 42.16L59.3115 41.632L63.0555 36.448ZM93.4841 12.64L92.8121 33.52L93.3881 46H86.6681L87.2441 34.336L86.6681 13.84L93.4841 12.64ZM111.377 46.528C107.825 46.528 104.833 45.04 102.401 42.064C99.9685 39.088 98.7525 35.44 98.7525 31.12C98.7525 25.84 100.209 21.392 103.121 17.776C106.065 14.16 109.665 12.352 113.921 12.352C115.585 12.352 117.121 12.528 118.529 12.88C119.969 13.2 120.993 13.536 121.601 13.888L122.465 14.416L119.201 21.088C118.465 20.448 117.425 19.856 116.081 19.312C114.737 18.736 113.521 18.448 112.433 18.448C110.225 18.448 108.449 19.36 107.105 21.184C105.793 23.008 105.137 25.616 105.137 29.008C105.137 32.368 105.825 35.136 107.201 37.312C108.577 39.456 110.449 40.528 112.817 40.528C114.353 40.528 115.745 40.048 116.993 39.088C118.241 38.128 119.121 36.848 119.633 35.248L123.617 37.552C122.561 40.368 120.945 42.576 118.769 44.176C116.593 45.744 114.129 46.528 111.377 46.528ZM124.758 36.688L124.374 32.32L135.702 30.304L136.086 34.672L124.758 36.688ZM141.056 36.448C143.776 39.168 146.496 40.528 149.216 40.528C150.624 40.528 151.744 40.208 152.576 39.568C153.44 38.896 153.872 38.048 153.872 37.024C153.872 35.968 153.36 35.088 152.336 34.384C151.312 33.648 150.064 33.008 148.592 32.464C147.152 31.92 145.712 31.312 144.272 30.64C142.832 29.936 141.6 28.944 140.576 27.664C139.552 26.384 139.04 24.832 139.04 23.008C139.04 20.128 140.24 17.648 142.64 15.568C145.04 13.456 147.888 12.4 151.184 12.4C152.688 12.4 154.144 12.56 155.552 12.88C156.96 13.2 158.32 13.664 159.632 14.272L156.368 21.28C155.472 20.576 154.24 19.936 152.672 19.36C151.136 18.752 149.776 18.448 148.592 18.448C147.44 18.448 146.496 18.736 145.76 19.312C145.056 19.856 144.704 20.592 144.704 21.52C144.704 22.448 145.216 23.28 146.24 24.016C147.264 24.72 148.496 25.344 149.936 25.888C151.408 26.432 152.864 27.04 154.304 27.712C155.776 28.352 157.024 29.312 158.048 30.592C159.072 31.872 159.584 33.424 159.584 35.248C159.584 38.256 158.384 40.896 155.984 43.168C153.584 45.408 150.784 46.528 147.584 46.528C145.184 46.528 143.056 45.952 141.2 44.8C139.568 43.808 138.416 42.928 137.744 42.16L137.312 41.632L141.056 36.448ZM165.196 36.448C167.916 39.168 170.636 40.528 173.356 40.528C174.764 40.528 175.884 40.208 176.716 39.568C177.58 38.896 178.012 38.048 178.012 37.024C178.012 35.968 177.5 35.088 176.476 34.384C175.452 33.648 174.204 33.008 172.732 32.464C171.292 31.92 169.852 31.312 168.412 30.64C166.972 29.936 165.74 28.944 164.716 27.664C163.692 26.384 163.18 24.832 163.18 23.008C163.18 20.128 164.38 17.648 166.78 15.568C169.18 13.456 172.028 12.4 175.324 12.4C176.828 12.4 178.284 12.56 179.692 12.88C181.1 13.2 182.46 13.664 183.772 14.272L180.508 21.28C179.612 20.576 178.38 19.936 176.812 19.36C175.276 18.752 173.916 18.448 172.732 18.448C171.58 18.448 170.636 18.736 169.9 19.312C169.196 19.856 168.844 20.592 168.844 21.52C168.844 22.448 169.356 23.28 170.38 24.016C171.404 24.72 172.636 25.344 174.076 25.888C175.548 26.432 177.004 27.04 178.444 27.712C179.916 28.352 181.164 29.312 182.188 30.592C183.212 31.872 183.724 33.424 183.724 35.248C183.724 38.256 182.524 40.896 180.124 43.168C177.724 45.408 174.924 46.528 171.724 46.528C169.324 46.528 167.196 45.952 165.34 44.8C163.708 43.808 162.556 42.928 161.884 42.16L161.452 41.632L165.196 36.448ZM200.377 46.528C196.185 46.528 192.809 45.12 190.249 42.304C187.689 39.488 186.409 35.76 186.409 31.12C186.409 25.84 188.009 21.392 191.209 17.776C194.409 14.16 198.345 12.352 203.017 12.352C204.873 12.352 206.585 12.528 208.153 12.88C209.753 13.2 210.889 13.536 211.561 13.888L212.521 14.416L209.737 21.088C208.777 20.448 207.481 19.856 205.849 19.312C204.217 18.736 202.777 18.448 201.529 18.448C198.937 18.448 196.857 19.36 195.289 21.184C193.721 23.008 192.937 25.424 192.937 28.432C192.937 32.496 193.673 35.664 195.145 37.936C196.649 40.208 198.729 41.344 201.385 41.344C203.113 41.344 204.745 41.104 206.281 40.624V33.184H200.089L200.569 28.336H212.089L211.657 36.16L211.993 44.464C207.289 45.84 203.417 46.528 200.377 46.528Z" fill="black"/>
<rect x="64.5" y="65" width="87" height="87" rx="10" fill="black"/>
<circle cx="81" cy="82" r="8" fill="#F1F1F1"/>
<path d="M99 79H143.5" stroke="white" stroke-width="2" stroke-linecap="round"/>
<path d="M86 143H130.5" stroke="white" stroke-width="2" stroke-linecap="round"/>
<path d="M99 84H143.5" stroke="white" stroke-width="2" stroke-linecap="round"/>
<path d="M81 105H135" stroke="white" stroke-width="5" stroke-linecap="round"/>
<rect x="81" y="118" width="54" height="12" rx="2" fill="white"/>
</svg>