<svg xmlns="http://www.w3.org/2000/svg" width="1351" height="500" viewBox="0 0 1351 500" fill="none">
<g opacity="0.2">
<path d="M630.75 61.5C631.578 61.5 632.25 60.8284 632.25 60C632.25 59.1716 631.578 58.5 630.75 58.5C629.922 58.5 629.25 59.1716 629.25 60C629.25 60.8284 629.922 61.5 630.75 61.5Z" stroke="black" stroke-width="3.5" stroke-linecap="round" stroke-linejoin="round"/>
<path d="M657.75 170C658.302 170 658.75 169.552 658.75 169C658.75 168.448 658.302 168 657.75 168C657.198 168 656.75 168.448 656.75 169C656.75 169.552 657.198 170 657.75 170Z" stroke="black" stroke-width="3.5" stroke-linecap="round" stroke-linejoin="round"/>
<path d="M770.75 41.2008C771.413 41.2008 771.95 40.6635 771.95 40.0008C771.95 39.338 771.413 38.8008 770.75 38.8008C770.087 38.8008 769.55 39.338 769.55 40.0008C769.55 40.6635 770.087 41.2008 770.75 41.2008Z" stroke="black" stroke-width="3.5" stroke-linecap="round" stroke-linejoin="round"/>
<path d="M860.75 91C861.302 91 861.75 90.5523 861.75 90C861.75 89.4477 861.302 89 860.75 89C860.198 89 859.75 89.4477 859.75 90C859.75 90.5523 860.198 91 860.75 91Z" stroke="black" stroke-width="3.5" stroke-linecap="round" stroke-linejoin="round"/>
<path d="M950.75 51.5C951.578 51.5 952.25 50.8284 952.25 50C952.25 49.1716 951.578 48.5 950.75 48.5C949.922 48.5 949.25 49.1716 949.25 50C949.25 50.8284 949.922 51.5 950.75 51.5Z" stroke="black" stroke-width="3.5" stroke-linecap="round" stroke-linejoin="round"/>
<path d="M1070.75 81C1071.3 81 1071.75 80.5523 1071.75 80C1071.75 79.4477 1071.3 79 1070.75 79C1070.2 79 1069.75 79.4477 1069.75 80C1069.75 80.5523 1070.2 81 1070.75 81Z" stroke="black" stroke-width="3.5" stroke-linecap="round" stroke-linejoin="round"/>
<path d="M1200.75 41.2992C1201.47 41.2992 1202.05 40.7172 1202.05 39.9992C1202.05 39.2812 1201.47 38.6992 1200.75 38.6992C1200.03 38.6992 1199.45 39.2812 1199.45 39.9992C1199.45 40.7172 1200.03 41.2992 1200.75 41.2992Z" stroke="black" stroke-width="3.5" stroke-linecap="round" stroke-linejoin="round"/>
<path d="M1270.75 111C1271.3 111 1271.75 110.552 1271.75 110C1271.75 109.448 1271.3 109 1270.75 109C1270.2 109 1269.75 109.448 1269.75 110C1269.75 110.552 1270.2 111 1270.75 111Z" stroke="black" stroke-width="3.5" stroke-linecap="round" stroke-linejoin="round"/>
<path d="M1150.75 161.5C1151.58 161.5 1152.25 160.828 1152.25 160C1152.25 159.172 1151.58 158.5 1150.75 158.5C1149.92 158.5 1149.25 159.172 1149.25 160C1149.25 160.828 1149.92 161.5 1150.75 161.5Z" stroke="black" stroke-width="3.5" stroke-linecap="round" stroke-linejoin="round"/>
<path d="M1020.75 141C1021.3 141 1021.75 140.552 1021.75 140C1021.75 139.448 1021.3 139 1020.75 139C1020.2 139 1019.75 139.448 1019.75 140C1019.75 140.552 1020.2 141 1020.75 141Z" stroke="black" stroke-width="3.5" stroke-linecap="round" stroke-linejoin="round"/>
<path d="M902.75 161C904.407 161 905.75 159.657 905.75 158C905.75 156.343 904.407 155 902.75 155C901.093 155 899.75 156.343 899.75 158C899.75 159.657 901.093 161 902.75 161Z" stroke="black" stroke-width="3.5" stroke-linecap="round" stroke-linejoin="round"/>
<path d="M976.75 176C978.407 176 979.75 174.657 979.75 173C979.75 171.343 978.407 170 976.75 170C975.093 170 973.75 171.343 973.75 173C973.75 174.657 975.093 176 976.75 176Z" stroke="black" stroke-width="3.5" stroke-linecap="round" stroke-linejoin="round"/>
<path d="M982.75 141C984.407 141 985.75 139.657 985.75 138C985.75 136.343 984.407 135 982.75 135C981.093 135 979.75 136.343 979.75 138C979.75 139.657 981.093 141 982.75 141Z" stroke="black" stroke-width="3.5" stroke-linecap="round" stroke-linejoin="round"/>
<path d="M730.75 181C731.302 181 731.75 180.552 731.75 180C731.75 179.448 731.302 179 730.75 179C730.198 179 729.75 179.448 729.75 180C729.75 180.552 730.198 181 730.75 181Z" stroke="black" stroke-width="3.5" stroke-linecap="round" stroke-linejoin="round"/>
<path d="M670.75 40V48" stroke="black" stroke-width="3.5" stroke-linecap="round" stroke-linejoin="round"/>
<path d="M666.75 44H674.75" stroke="black" stroke-width="3.5" stroke-linecap="round" stroke-linejoin="round"/>
<path d="M1090.75 30V38" stroke="black" stroke-width="3.5" stroke-linecap="round" stroke-linejoin="round"/>
<path d="M1086.75 34H1094.75" stroke="black" stroke-width="3.5" stroke-linecap="round" stroke-linejoin="round"/>
<path d="M1250.75 200V208" stroke="black" stroke-width="3.5" stroke-linecap="round" stroke-linejoin="round"/>
<path d="M1246.75 204H1254.75" stroke="black" stroke-width="3.5" stroke-linecap="round" stroke-linejoin="round"/>
<path d="M1150.75 340C1172.84 340 1190.75 322.091 1190.75 300C1190.75 277.909 1172.84 260 1150.75 260C1128.66 260 1110.75 277.909 1110.75 300C1110.75 322.091 1128.66 340 1150.75 340Z" stroke="black" stroke-width="3.5" stroke-linecap="round" stroke-linejoin="round"/>
<path d="M1155.41 317.386C1192.75 307.381 1220.94 291.485 1218.36 281.882C1215.79 272.28 1183.43 272.607 1146.09 282.613C1108.75 292.619 1080.56 308.515 1083.14 318.117C1085.71 327.72 1118.07 327.392 1155.41 317.386Z" stroke="black" stroke-width="3.5" stroke-linecap="round" stroke-linejoin="round"/>
<path d="M1220.75 268C1225.17 268 1228.75 264.418 1228.75 260C1228.75 255.582 1225.17 252 1220.75 252C1216.33 252 1212.75 255.582 1212.75 260C1212.75 264.418 1216.33 268 1220.75 268Z" stroke="black" stroke-width="3.5" stroke-linecap="round" stroke-linejoin="round"/>
<path d="M822.75 283C823.302 283 823.75 282.552 823.75 282C823.75 281.448 823.302 281 822.75 281C822.198 281 821.75 281.448 821.75 282C821.75 282.552 822.198 283 822.75 283Z" stroke="black" stroke-width="3.5" stroke-linecap="round" stroke-linejoin="round"/>
<path d="M912.75 243.5C913.578 243.5 914.25 242.828 914.25 242C914.25 241.172 913.578 240.5 912.75 240.5C911.922 240.5 911.25 241.172 911.25 242C911.25 242.828 911.922 243.5 912.75 243.5Z" stroke="black" stroke-width="3.5" stroke-linecap="round" stroke-linejoin="round"/>
<path d="M1032.75 273C1033.3 273 1033.75 272.552 1033.75 272C1033.75 271.448 1033.3 271 1032.75 271C1032.2 271 1031.75 271.448 1031.75 272C1031.75 272.552 1032.2 273 1032.75 273Z" stroke="black" stroke-width="3.5" stroke-linecap="round" stroke-linejoin="round"/>
<path d="M982.75 333C983.302 333 983.75 332.552 983.75 332C983.75 331.448 983.302 331 982.75 331C982.198 331 981.75 331.448 981.75 332C981.75 332.552 982.198 333 982.75 333Z" stroke="black" stroke-width="3.5" stroke-linecap="round" stroke-linejoin="round"/>
<path d="M1120.75 341C1121.3 341 1121.75 340.552 1121.75 340C1121.75 339.448 1121.3 339 1120.75 339C1120.2 339 1119.75 339.448 1119.75 340C1119.75 340.552 1120.2 341 1120.75 341Z" stroke="black" stroke-width="3.5" stroke-linecap="round" stroke-linejoin="round"/>
<path d="M1162.75 327C1163.3 327 1163.75 326.552 1163.75 326C1163.75 325.448 1163.3 325 1162.75 325C1162.2 325 1161.75 325.448 1161.75 326C1161.75 326.552 1162.2 327 1162.75 327Z" stroke="black" stroke-width="3.5" stroke-linecap="round" stroke-linejoin="round"/>
<path d="M862.751 353.201C863.414 353.201 863.951 352.664 863.951 352.001C863.951 351.338 863.414 350.801 862.751 350.801C862.088 350.801 861.551 351.338 861.551 352.001C861.551 352.664 862.088 353.201 862.751 353.201Z" stroke="black" stroke-width="3.5" stroke-linecap="round" stroke-linejoin="round"/>
<path d="M1048.75 226H1056.75" stroke="black" stroke-width="3.5" stroke-linecap="round" stroke-linejoin="round"/>
<path d="M732.75 148C733.302 148 733.75 147.552 733.75 147C733.75 146.448 733.302 146 732.75 146C732.198 146 731.75 146.448 731.75 147C731.75 147.552 732.198 148 732.75 148Z" stroke="black" stroke-width="3.5" stroke-linecap="round" stroke-linejoin="round"/>
<path d="M822.75 108.5C823.578 108.5 824.25 107.828 824.25 107C824.25 106.172 823.578 105.5 822.75 105.5C821.922 105.5 821.25 106.172 821.25 107C821.25 107.828 821.922 108.5 822.75 108.5Z" stroke="black" stroke-width="3.5" stroke-linecap="round" stroke-linejoin="round"/>
<path d="M942.75 138C943.302 138 943.75 137.552 943.75 137C943.75 136.448 943.302 136 942.75 136C942.198 136 941.75 136.448 941.75 137C941.75 137.552 942.198 138 942.75 138Z" stroke="black" stroke-width="3.5" stroke-linecap="round" stroke-linejoin="round"/>
<path d="M892.75 198C893.302 198 893.75 197.552 893.75 197C893.75 196.448 893.302 196 892.75 196C892.198 196 891.75 196.448 891.75 197C891.75 197.552 892.198 198 892.75 198Z" stroke="black" stroke-width="3.5" stroke-linecap="round" stroke-linejoin="round"/>
<path d="M772.751 218.201C773.414 218.201 773.951 217.664 773.951 217.001C773.951 216.338 773.414 215.801 772.751 215.801C772.088 215.801 771.551 216.338 771.551 217.001C771.551 217.664 772.088 218.201 772.751 218.201Z" stroke="black" stroke-width="3.5" stroke-linecap="round" stroke-linejoin="round"/>
<path d="M958.75 91H966.75" stroke="black" stroke-width="3.5" stroke-linecap="round" stroke-linejoin="round"/>
<path d="M1136.75 85.8456C1138.75 83.8456 1142.75 83.8456 1144.75 85.8456C1148.75 89.8456 1146.75 95.8456 1140.75 97.8456C1132.75 101.846 1122.75 95.8456 1122.75 85.8456C1122.75 69.8456 1140.75 61.8456 1154.75 69.8456C1174.75 81.8456 1170.75 113.846 1140.75 119.846C1106.75 125.846 1086.75 95.8456 1096.75 65.8456C1112.75 17.8456 1176.75 21.8456 1190.75 71.8456C1210.75 141.846 1126.75 175.846 1074.75 127.846" stroke="black" stroke-width="3" stroke-linecap="round" stroke-linejoin="round"/>
<path d="M1056.75 327V335" stroke="black" stroke-width="3.5" stroke-linecap="round" stroke-linejoin="round"/>
<path d="M1026.75 296V304" stroke="black" stroke-width="3.5" stroke-linecap="round" stroke-linejoin="round"/>
<path d="M1069.75 276V284" stroke="black" stroke-width="3.5" stroke-linecap="round" stroke-linejoin="round"/>
<path d="M1052.75 300V308" stroke="black" stroke-width="3.5" stroke-linecap="round" stroke-linejoin="round"/>
<path d="M1052.75 331H1060.75" stroke="black" stroke-width="3.5" stroke-linecap="round" stroke-linejoin="round"/>
<path d="M1022.75 300H1030.75" stroke="black" stroke-width="3.5" stroke-linecap="round" stroke-linejoin="round"/>
<path d="M1065.75 280H1073.75" stroke="black" stroke-width="3.5" stroke-linecap="round" stroke-linejoin="round"/>
<path d="M1048.75 304H1056.75" stroke="black" stroke-width="3.5" stroke-linecap="round" stroke-linejoin="round"/>
<path d="M314.75 101C315.302 101 315.75 100.552 315.75 100C315.75 99.4477 315.302 99 314.75 99C314.198 99 313.75 99.4477 313.75 100C313.75 100.552 314.198 101 314.75 101Z" stroke="black" stroke-width="3.5" stroke-linecap="round" stroke-linejoin="round"/>
<path d="M404.75 61.5C405.578 61.5 406.25 60.8284 406.25 60C406.25 59.1716 405.578 58.5 404.75 58.5C403.922 58.5 403.25 59.1716 403.25 60C403.25 60.8284 403.922 61.5 404.75 61.5Z" stroke="black" stroke-width="3.5" stroke-linecap="round" stroke-linejoin="round"/>
<path d="M524.75 91C525.302 91 525.75 90.5523 525.75 90C525.75 89.4477 525.302 89 524.75 89C524.198 89 523.75 89.4477 523.75 90C523.75 90.5523 524.198 91 524.75 91Z" stroke="black" stroke-width="3.5" stroke-linecap="round" stroke-linejoin="round"/>
<path d="M474.75 151C475.302 151 475.75 150.552 475.75 150C475.75 149.448 475.302 149 474.75 149C474.198 149 473.75 149.448 473.75 150C473.75 150.552 474.198 151 474.75 151Z" stroke="black" stroke-width="3.5" stroke-linecap="round" stroke-linejoin="round"/>
<path d="M354.751 171.201C355.414 171.201 355.951 170.664 355.951 170.001C355.951 169.338 355.414 168.801 354.751 168.801C354.088 168.801 353.551 169.338 353.551 170.001C353.551 170.664 354.088 171.201 354.751 171.201Z" stroke="black" stroke-width="3.5" stroke-linecap="round" stroke-linejoin="round"/>
<path d="M540.75 44H548.75" stroke="black" stroke-width="3.5" stroke-linecap="round" stroke-linejoin="round"/>
<path d="M314.75 365C315.302 365 315.75 364.552 315.75 364C315.75 363.448 315.302 363 314.75 363C314.198 363 313.75 363.448 313.75 364C313.75 364.552 314.198 365 314.75 365Z" stroke="black" stroke-width="3.5" stroke-linecap="round" stroke-linejoin="round"/>
<path d="M404.75 325.5C405.578 325.5 406.25 324.828 406.25 324C406.25 323.172 405.578 322.5 404.75 322.5C403.922 322.5 403.25 323.172 403.25 324C403.25 324.828 403.922 325.5 404.75 325.5Z" stroke="black" stroke-width="3.5" stroke-linecap="round" stroke-linejoin="round"/>
<path d="M524.75 355C525.302 355 525.75 354.552 525.75 354C525.75 353.448 525.302 353 524.75 353C524.198 353 523.75 353.448 523.75 354C523.75 354.552 524.198 355 524.75 355Z" stroke="black" stroke-width="3.5" stroke-linecap="round" stroke-linejoin="round"/>
<path d="M474.75 415C475.302 415 475.75 414.552 475.75 414C475.75 413.448 475.302 413 474.75 413C474.198 413 473.75 413.448 473.75 414C473.75 414.552 474.198 415 474.75 415Z" stroke="black" stroke-width="3.5" stroke-linecap="round" stroke-linejoin="round"/>
<path d="M354.751 435.201C355.414 435.201 355.951 434.664 355.951 434.001C355.951 433.338 355.414 432.801 354.751 432.801C354.088 432.801 353.551 433.338 353.551 434.001C353.551 434.664 354.088 435.201 354.751 435.201Z" stroke="black" stroke-width="3.5" stroke-linecap="round" stroke-linejoin="round"/>
<path d="M540.75 308H548.75" stroke="black" stroke-width="3.5" stroke-linecap="round" stroke-linejoin="round"/>
<path d="M108.75 189C109.302 189 109.75 188.552 109.75 188C109.75 187.448 109.302 187 108.75 187C108.198 187 107.75 187.448 107.75 188C107.75 188.552 108.198 189 108.75 189Z" stroke="black" stroke-width="3.5" stroke-linecap="round" stroke-linejoin="round"/>
<path d="M200.75 150C202.407 150 203.75 148.657 203.75 147C203.75 145.343 202.407 144 200.75 144C199.093 144 197.75 145.343 197.75 147C197.75 148.657 199.093 150 200.75 150Z" stroke="black" stroke-width="3.5" stroke-linecap="round" stroke-linejoin="round"/>
<path d="M151.75 64C153.407 64 154.75 62.6569 154.75 61C154.75 59.3431 153.407 58 151.75 58C150.093 58 148.75 59.3431 148.75 61C148.75 62.6569 150.093 64 151.75 64Z" stroke="black" stroke-width="3.5" stroke-linecap="round" stroke-linejoin="round"/>
<path d="M233.75 183C235.407 183 236.75 181.657 236.75 180C236.75 178.343 235.407 177 233.75 177C232.093 177 230.75 178.343 230.75 180C230.75 181.657 232.093 183 233.75 183Z" stroke="black" stroke-width="3.5" stroke-linecap="round" stroke-linejoin="round"/>
<path d="M318.75 179C319.302 179 319.75 178.552 319.75 178C319.75 177.448 319.302 177 318.75 177C318.198 177 317.75 177.448 317.75 178C317.75 178.552 318.198 179 318.75 179Z" stroke="black" stroke-width="3.5" stroke-linecap="round" stroke-linejoin="round"/>
<path d="M268.75 239C269.302 239 269.75 238.552 269.75 238C269.75 237.448 269.302 237 268.75 237C268.198 237 267.75 237.448 267.75 238C267.75 238.552 268.198 239 268.75 239Z" stroke="black" stroke-width="3.5" stroke-linecap="round" stroke-linejoin="round"/>
<path d="M148.751 259.201C149.414 259.201 149.951 258.664 149.951 258.001C149.951 257.338 149.414 256.801 148.751 256.801C148.088 256.801 147.551 257.338 147.551 258.001C147.551 258.664 148.088 259.201 148.751 259.201Z" stroke="black" stroke-width="3.5" stroke-linecap="round" stroke-linejoin="round"/>
<path d="M334.75 132H342.75" stroke="black" stroke-width="3.5" stroke-linecap="round" stroke-linejoin="round"/>
<path d="M2.75 79C3.30228 79 3.75 78.5523 3.75 78C3.75 77.4477 3.30228 77 2.75 77C2.19772 77 1.75 77.4477 1.75 78C1.75 78.5523 2.19772 79 2.75 79Z" stroke="black" stroke-width="3.5" stroke-linecap="round" stroke-linejoin="round"/>
<path d="M92.75 39.5C93.5784 39.5 94.25 38.8284 94.25 38C94.25 37.1716 93.5784 36.5 92.75 36.5C91.9216 36.5 91.25 37.1716 91.25 38C91.25 38.8284 91.9216 39.5 92.75 39.5Z" stroke="black" stroke-width="3.5" stroke-linecap="round" stroke-linejoin="round"/>
<path d="M212.75 69C213.302 69 213.75 68.5523 213.75 68C213.75 67.4477 213.302 67 212.75 67C212.198 67 211.75 67.4477 211.75 68C211.75 68.5523 212.198 69 212.75 69Z" stroke="black" stroke-width="3.5" stroke-linecap="round" stroke-linejoin="round"/>
<path d="M162.75 129C163.302 129 163.75 128.552 163.75 128C163.75 127.448 163.302 127 162.75 127C162.198 127 161.75 127.448 161.75 128C161.75 128.552 162.198 129 162.75 129Z" stroke="black" stroke-width="3.5" stroke-linecap="round" stroke-linejoin="round"/>
<path d="M42.7508 149.201C43.4135 149.201 43.9508 148.664 43.9508 148.001C43.9508 147.338 43.4135 146.801 42.7508 146.801C42.0881 146.801 41.5508 147.338 41.5508 148.001C41.5508 148.664 42.0881 149.201 42.7508 149.201Z" stroke="black" stroke-width="3.5" stroke-linecap="round" stroke-linejoin="round"/>
<path d="M228.75 22H236.75" stroke="black" stroke-width="3.5" stroke-linecap="round" stroke-linejoin="round"/>
<path d="M4.75 126C5.30228 126 5.75 125.552 5.75 125C5.75 124.448 5.30228 124 4.75 124C4.19772 124 3.75 124.448 3.75 125C3.75 125.552 4.19772 126 4.75 126Z" stroke="black" stroke-width="3.5" stroke-linecap="round" stroke-linejoin="round"/>
<path d="M94.75 86.5C95.5784 86.5 96.25 85.8284 96.25 85C96.25 84.1716 95.5784 83.5 94.75 83.5C93.9216 83.5 93.25 84.1716 93.25 85C93.25 85.8284 93.9216 86.5 94.75 86.5Z" stroke="black" stroke-width="3.5" stroke-linecap="round" stroke-linejoin="round"/>
<path d="M214.75 116C215.302 116 215.75 115.552 215.75 115C215.75 114.448 215.302 114 214.75 114C214.198 114 213.75 114.448 213.75 115C213.75 115.552 214.198 116 214.75 116Z" stroke="black" stroke-width="3.5" stroke-linecap="round" stroke-linejoin="round"/>
<path d="M164.75 176C165.302 176 165.75 175.552 165.75 175C165.75 174.448 165.302 174 164.75 174C164.198 174 163.75 174.448 163.75 175C163.75 175.552 164.198 176 164.75 176Z" stroke="black" stroke-width="3.5" stroke-linecap="round" stroke-linejoin="round"/>
<path d="M44.7508 196.201C45.4135 196.201 45.9508 195.664 45.9508 195.001C45.9508 194.338 45.4135 193.801 44.7508 193.801C44.0881 193.801 43.5508 194.338 43.5508 195.001C43.5508 195.664 44.0881 196.201 44.7508 196.201Z" stroke="black" stroke-width="3.5" stroke-linecap="round" stroke-linejoin="round"/>
<path d="M230.75 69H238.75" stroke="black" stroke-width="3.5" stroke-linecap="round" stroke-linejoin="round"/>
<path d="M342.75 207L402.75 187" stroke="black" stroke-width="3.5" stroke-linecap="round" stroke-linejoin="round"/>
<path d="M342.75 207L382.75 202" stroke="black" stroke-width="3.5" stroke-linecap="round" stroke-linejoin="round"/>
<path d="M614.75 242C615.302 242 615.75 241.552 615.75 241C615.75 240.448 615.302 240 614.75 240C614.198 240 613.75 240.448 613.75 241C613.75 241.552 614.198 242 614.75 242Z" stroke="black" stroke-width="3.5" stroke-linecap="round" stroke-linejoin="round"/>
<path d="M494.75 292.5C495.578 292.5 496.25 291.828 496.25 291C496.25 290.172 495.578 289.5 494.75 289.5C493.922 289.5 493.25 290.172 493.25 291C493.25 291.828 493.922 292.5 494.75 292.5Z" stroke="black" stroke-width="3.5" stroke-linecap="round" stroke-linejoin="round"/>
<path d="M364.75 272C365.302 272 365.75 271.552 365.75 271C365.75 270.448 365.302 270 364.75 270C364.198 270 363.75 270.448 363.75 271C363.75 271.552 364.198 272 364.75 272Z" stroke="black" stroke-width="3.5" stroke-linecap="round" stroke-linejoin="round"/>
<path d="M244.751 292.201C245.414 292.201 245.951 291.664 245.951 291.001C245.951 290.338 245.414 289.801 244.751 289.801C244.088 289.801 243.551 290.338 243.551 291.001C243.551 291.664 244.088 292.201 244.751 292.201Z" stroke="black" stroke-width="3.5" stroke-linecap="round" stroke-linejoin="round"/>
<path d="M74.75 312C75.3023 312 75.75 311.552 75.75 311C75.75 310.448 75.3023 310 74.75 310C74.1977 310 73.75 310.448 73.75 311C73.75 311.552 74.1977 312 74.75 312Z" stroke="black" stroke-width="3.5" stroke-linecap="round" stroke-linejoin="round"/>
<path d="M14.75 171V179" stroke="black" stroke-width="3.5" stroke-linecap="round" stroke-linejoin="round"/>
<path d="M10.75 175H18.75" stroke="black" stroke-width="3.5" stroke-linecap="round" stroke-linejoin="round"/>
<path d="M434.75 161V169" stroke="black" stroke-width="3.5" stroke-linecap="round" stroke-linejoin="round"/>
<path d="M161.75 356L221.75 336" stroke="black" stroke-width="3.5" stroke-linecap="round" stroke-linejoin="round"/>
<path d="M161.75 356L201.75 351" stroke="black" stroke-width="3.5" stroke-linecap="round" stroke-linejoin="round"/>
<path d="M99.75 228C100.855 228 101.75 227.105 101.75 226C101.75 224.895 100.855 224 99.75 224C98.6454 224 97.75 224.895 97.75 226C97.75 227.105 98.6454 228 99.75 228Z" stroke="black" stroke-width="3.5" stroke-linecap="round" stroke-linejoin="round"/>
<path d="M139.75 208C140.855 208 141.75 207.105 141.75 206C141.75 204.895 140.855 204 139.75 204C138.645 204 137.75 204.895 137.75 206C137.75 207.105 138.645 208 139.75 208Z" stroke="black" stroke-width="3.5" stroke-linecap="round" stroke-linejoin="round"/>
<path d="M179.75 238C180.855 238 181.75 237.105 181.75 236C181.75 234.895 180.855 234 179.75 234C178.645 234 177.75 234.895 177.75 236C177.75 237.105 178.645 238 179.75 238Z" stroke="black" stroke-width="3.5" stroke-linecap="round" stroke-linejoin="round"/>
<path d="M219.75 218C220.855 218 221.75 217.105 221.75 216C221.75 214.895 220.855 214 219.75 214C218.645 214 217.75 214.895 217.75 216C217.75 217.105 218.645 218 219.75 218Z" stroke="black" stroke-width="3.5" stroke-linecap="round" stroke-linejoin="round"/>
<path d="M99.75 226L139.75 206L179.75 236L219.75 216" stroke="black" stroke-width="3.5" stroke-linecap="round" stroke-linejoin="round"/>
<path d="M45.75 80C62.3185 80 75.75 66.5685 75.75 50C75.75 33.4315 62.3185 20 45.75 20C29.1815 20 15.75 33.4315 15.75 50C15.75 66.5685 29.1815 80 45.75 80Z" stroke="black" stroke-width="1.5" stroke-linecap="round" stroke-linejoin="round"/>
<path d="M15.75 40H75.75" stroke="black" stroke-width="1.5" stroke-linecap="round" stroke-linejoin="round"/>
<path d="M20.75 50H70.75" stroke="black" stroke-width="1.5" stroke-linecap="round" stroke-linejoin="round"/>
<path d="M25.75 60H65.75" stroke="black" stroke-width="1.5" stroke-linecap="round" stroke-linejoin="round"/>
</g>
</svg>