<svg xmlns="http://www.w3.org/2000/svg" width="120" height="160" viewBox="0 0 120 160" fill="none">
<path d="M60 44C82.0914 44 100 37.732 100 30C100 22.268 82.0914 16 60 16C37.9086 16 20 22.268 20 30C20 37.732 37.9086 44 60 44Z" stroke="black" stroke-width="3" stroke-linecap="round" stroke-linejoin="round"/>
<path d="M100 108C100 115.732 82.0914 122 60 122C37.9086 122 20 115.732 20 108" stroke="black" stroke-width="3" stroke-linecap="round" stroke-linejoin="round"/>
<path d="M100 85C100 92.732 82.0914 99 60 99C37.9086 99 20 92.732 20 85" stroke="black" stroke-width="3" stroke-linecap="round" stroke-linejoin="round"/>
<path d="M100 69C100 76.732 82.0914 83 60 83C37.9086 83 20 76.732 20 69" stroke="black" stroke-width="3" stroke-linecap="round" stroke-linejoin="round"/>
<path d="M20 30V130" stroke="black" stroke-width="3" stroke-linecap="round" stroke-linejoin="round"/>
<path d="M100 30V130" stroke="black" stroke-width="3" stroke-linecap="round" stroke-linejoin="round"/>
<path d="M20 130C20 133.713 24.2143 137.274 31.7157 139.899C39.2172 142.525 49.3913 144 60 144C70.6087 144 80.7828 142.525 88.2843 139.899C95.7857 137.274 100 133.713 100 130" stroke="black" stroke-width="3" stroke-linecap="round" stroke-linejoin="round"/>
<path d="M39.7695 66.1758C41.543 67.1133 43.2773 67.582 44.9727 67.582C46.9414 67.582 48.0938 66.9531 48.4297 65.6953C48.5391 65.2812 48.5938 64.8047 48.5938 64.2656V63.8086C48.5938 63.2617 48.5547 62.8203 48.4766 62.4844C48.3984 62.1484 48.2344 61.875 47.9844 61.6641C47.5781 61.3125 46.6172 61.0195 45.1016 60.7852C43.75 60.5742 42.8164 60.375 42.3008 60.1875C41.7852 60 41.3594 59.7969 41.0234 59.5781C40.6953 59.3516 40.4141 59.0703 40.1797 58.7344C39.6953 58.0312 39.4531 57.0586 39.4531 55.8164V55.6992C39.4531 53.1211 40.5234 51.5781 42.6641 51.0703C43.3438 50.9141 44.1133 50.8359 44.9727 50.8359H45.125C47.1328 50.8359 48.7734 51.125 50.0469 51.7031L49.4375 53.4961C47.8984 52.832 46.4805 52.5 45.1836 52.5H45.0781C43.6484 52.5 42.6641 52.7695 42.125 53.3086C41.6719 53.7617 41.4453 54.5469 41.4453 55.6641V55.7109C41.4453 56.9844 41.7969 57.8203 42.5 58.2188C42.9766 58.4766 43.8281 58.7031 45.0547 58.8984C46.2891 59.0938 47.207 59.2617 47.8086 59.4023C48.4102 59.5352 48.9219 59.7578 49.3438 60.0703C50.2188 60.7266 50.6562 61.9727 50.6562 63.8086V63.9609C50.6562 66.7656 49.5273 68.4375 47.2695 68.9766C46.5742 69.1484 45.918 69.2344 45.3008 69.2344C44.6836 69.2344 44.1211 69.2109 43.6133 69.1641C43.1133 69.125 42.6016 69.0508 42.0781 68.9414C40.8516 68.6914 39.8242 68.3164 38.9961 67.8164L39.7695 66.1758ZM61.625 69.2227L61.3789 69.2344H60.6523C57.8711 69.2344 56.0352 68.3594 55.1445 66.6094C54.6211 65.5938 54.3125 64.2383 54.2188 62.543C54.1797 61.7461 54.1602 60.8789 54.1602 59.9414C54.1602 59.0039 54.1875 58.1172 54.2422 57.2812C54.2969 56.4375 54.4023 55.6758 54.5586 54.9961C54.7227 54.3164 54.9492 53.7188 55.2383 53.2031C55.5352 52.6797 55.9219 52.2422 56.3984 51.8906C57.3828 51.1875 58.8008 50.8359 60.6523 50.8359H61.3789C64.2773 50.8359 66.1328 51.6172 66.9453 53.1797C67.4531 54.1562 67.7383 55.5156 67.8008 57.2578C67.832 58.1094 67.8477 59.0859 67.8477 60.1875C67.8477 61.2812 67.8008 62.3359 67.707 63.3516C67.6211 64.3672 67.4219 65.2695 67.1094 66.0586C66.4375 67.7305 65.1406 68.7383 63.2188 69.082C64.1484 70.207 65.4492 71.4023 67.1211 72.668L65.6328 74.2383C63.7188 72.6211 62.3828 70.9492 61.625 69.2227ZM61.3555 67.5469C62.2148 67.5469 62.9258 67.4531 63.4883 67.2656C64.0586 67.0781 64.5078 66.75 64.8359 66.2812C65.4453 65.4141 65.75 63.75 65.75 61.2891V60.0234C65.75 58.8438 65.7188 57.793 65.6562 56.8711C65.5938 55.9492 65.4258 55.1719 65.1523 54.5391C64.5898 53.2266 63.3711 52.5703 61.4961 52.5703H60.5117C58.6055 52.5703 57.3867 53.1836 56.8555 54.4102C56.5195 55.1914 56.3359 56.1133 56.3047 57.1758C56.2734 58.2383 56.2578 59.1875 56.2578 60.0234V61.2891C56.2578 63.5938 56.6016 65.2188 57.2891 66.1641C57.9531 67.0859 59.0742 67.5469 60.6523 67.5469H61.3555ZM72.7227 51.0703H74.7148V67.2773H81.8164V69H72.7227V51.0703Z" fill="black"/>
</svg>